<svg
  width="92"
  height="20"
  viewBox="0 0 92 20"
  fill="none"
  xmlns="http://www.w3.org/2000/svg"
>
  <path
    fill-rule="evenodd"
    clip-rule="evenodd"
    d="M14.3709 14.067C13.4404 14.7119 12.377 15.0988 10.649 14.9699C7.59167 14.8409 5.86362 12.6483 5.86362 10.0687C5.86362 7.48915 7.72459 5.16755 10.649 5.16755C12.377 5.16755 13.3075 5.42551 14.238 6.0704L17.2953 2.20107C15.277 0.705188 12.7887 -0.0692566 10.2502 0.00844275C8.8793 -0.0475417 7.51149 0.175382 6.23468 0.662887C4.95786 1.15039 3.80029 1.8917 2.83633 2.83916C1.87238 3.78662 1.12338 4.91928 0.63747 6.16435C0.151556 7.40943 -0.0605254 8.73937 0.0148565 10.0687C0.0148565 15.7437 4.2685 19.871 10.2502 19.871C12.9087 19.871 15.4343 19.3551 17.1624 17.9364L14.3709 14.067ZM92 9.93973C92 7.10222 89.4744 4.78062 84.822 4.78062C82.4293 4.78062 80.7013 5.16755 79.6378 5.55449L80.5683 9.29484C85.7525 7.74711 87.4805 9.42382 87.2147 11.4875C87.2147 11.4875 85.2208 10.4556 82.961 10.4556C79.7708 10.4556 77.9098 12.6483 77.9098 15.0988C77.9098 18.1943 79.9037 19.742 82.961 19.742C83.7754 19.7572 84.5825 19.5907 85.32 19.2552C86.0575 18.9198 86.7057 18.4244 87.2147 17.8074V19.3551H92V10.0687V9.93973ZM84.5561 16.3886C83.3598 16.3886 82.8281 15.7437 82.8281 14.7119C82.8281 13.8091 83.6256 13.1642 84.5561 13.1642C85.7525 13.1642 86.4171 13.2932 87.0817 13.5511H87.2147C87.2147 14.8409 86.4171 16.3886 84.5561 16.3886ZM17.6941 12.3903C17.6941 8.00506 21.1502 4.9096 25.6697 4.9096C30.1892 4.9096 33.6453 8.00506 33.6453 12.3903C33.6453 16.7756 30.1892 19.871 25.6697 19.871C21.1502 19.871 17.6941 16.7756 17.6941 12.3903ZM22.7453 12.3903C22.7453 14.325 23.9416 15.6148 25.6697 15.6148C27.3977 15.6148 28.5941 14.196 28.5941 12.3903C28.5941 10.5846 27.3977 9.29484 25.6697 9.29484C23.9416 9.29484 22.7453 10.5846 22.7453 12.3903ZM44.2794 4.9096C42.5513 4.9096 40.9562 5.81244 39.8928 7.10222V5.29653H35.2404V19.4841H39.8928V11.2295C39.8928 10.6822 40.1169 10.1573 40.5157 9.77029C40.9146 9.38328 41.4556 9.16587 42.0196 9.16587C42.5837 9.16587 43.1247 9.38328 43.5235 9.77029C43.9224 10.1573 44.1465 10.6822 44.1465 11.2295V19.4841H48.9318V9.42382C48.9318 6.84427 47.2038 4.9096 44.2794 4.9096ZM70.8647 13.4221C70.8647 14.7119 71.7952 15.6148 73.5232 15.6148C74.1879 15.6148 74.8525 15.3568 75.5171 15.0988L76.8464 18.7102C75.9159 19.2261 74.0549 20 71.9281 20C68.3391 20 66.2123 18.1943 66.2123 15.7437V1.55618H70.8647V5.42551H75.3842L75.1183 9.29484H70.8647V13.4221ZM52.255 15.2278L50.5269 17.9364C52.5208 19.2261 54.9135 20 57.572 20C61.5598 20 63.8196 18.0653 63.8196 14.9699C63.8196 12.0034 61.6928 11.1005 58.1037 10.0687C56.7745 9.68178 56.3757 9.29484 56.3757 8.77893C56.4205 8.59035 56.519 8.41779 56.66 8.28095C56.8011 8.14411 56.9789 8.04851 57.1733 8.00507C58.5025 7.74711 60.3635 8.392 61.9586 9.29484L63.5537 6.58631C61.8257 5.55449 59.5659 4.78062 57.3062 4.78062C53.5842 4.78062 51.0586 6.71529 51.0586 9.93973C51.0586 12.7772 53.3184 13.8091 56.9074 14.7119C58.2367 15.0988 58.5025 15.6148 58.5025 15.8727C58.5025 16.1307 58.2367 16.5176 57.705 16.6466C55.7361 16.7597 53.781 16.2629 52.1221 15.2278H52.255Z"
    fill="url(#paint0_linear_137_15947)"
  />
  <defs>
    <linearGradient
      id="paint0_linear_137_15947"
      x1="0"
      y1="0"
      x2="92"
      y2="20"
      gradientUnits="userSpaceOnUse"
    >
      <stop stop-color="#0083E6" />
      <stop offset="1" stop-color="#00A1D5" />
    </linearGradient>
  </defs>
</svg>
